<svg width="610" height="538" viewBox="0 0 610 538" fill="none" xmlns="http://www.w3.org/2000/svg">
<rect x="484.506" y="387.699" width="58.8554" height="51.4301" transform="rotate(120 484.506 387.699)" fill="url(#paint0_angular_1644_19647)" stroke="#F5F5F5"/>
<path d="M409.591 372.713C364.192 353.472 318.908 341.454 288.056 299.164C273.365 279.027 260.479 258.251 248.941 235.872C237.718 214.102 226.872 190.512 211.823 171.43C201.069 157.795 187.532 146.385 173.653 136.367C155.442 123.222 135.42 120.929 112.798 121.633C76.9147 122.75 39.178 129.122 3.54607 136.646" stroke="url(#paint1_angular_1644_19647)" stroke-width="4" stroke-linecap="round"/>
<rect x="392.686" y="356.524" width="31.7979" height="17.5589" rx="8.77943" transform="rotate(27.9076 392.686 356.524)" fill="url(#paint2_angular_1644_19647)" stroke="#F5F5F5"/>
<mask id="path-4-inside-1_1644_19647" fill="white">
<path d="M407.751 412.013C404.337 410.042 401.345 407.419 398.946 404.291C396.546 401.164 394.786 397.595 393.766 393.788C392.746 389.981 392.486 386.01 393 382.102C393.515 378.194 394.794 374.425 396.765 371.012C398.735 367.598 401.359 364.606 404.486 362.207C407.614 359.807 411.183 358.047 414.99 357.027C418.797 356.007 422.768 355.747 426.676 356.261C430.584 356.776 434.352 358.055 437.766 360.026L422.758 386.019L407.751 412.013Z"/>
</mask>
<path d="M407.751 412.013C404.337 410.042 401.345 407.419 398.946 404.291C396.546 401.164 394.786 397.595 393.766 393.788C392.746 389.981 392.486 386.01 393 382.102C393.515 378.194 394.794 374.425 396.765 371.012C398.735 367.598 401.359 364.606 404.486 362.207C407.614 359.807 411.183 358.047 414.99 357.027C418.797 356.007 422.768 355.747 426.676 356.261C430.584 356.776 434.352 358.055 437.766 360.026L422.758 386.019L407.751 412.013Z" fill="url(#paint3_angular_1644_19647)" stroke="#F5F5F5" stroke-width="2" mask="url(#path-4-inside-1_1644_19647)"/>
<rect x="452.854" y="353.544" width="87.2854" height="17.5589" rx="8.77943" transform="rotate(120 452.854 353.544)" fill="url(#paint4_angular_1644_19647)" stroke="#F5F5F5"/>
<path d="M468.295 451.465L480.189 489.794L471.38 494.366L480.143 535.029" stroke="#FFD900" stroke-width="2" stroke-linecap="round"/>
<path d="M586.308 398.056L546.542 403.46L543.486 394.017L501.935 395.948" stroke="#666C6F" stroke-width="2" stroke-linecap="round"/>
<path d="M492.636 425.111L512.674 442.416L506.789 447.064L519.782 454.642" stroke="#666C6F" stroke-width="2" stroke-linecap="round"/>
<path d="M500.434 410.119L597.727 451.957" stroke="#FFD900" stroke-width="2" stroke-linecap="round"/>
<path d="M479.938 440.896L506.076 476.969" stroke="#666C6F" stroke-width="2" stroke-linecap="round"/>
<defs>
<radialGradient id="paint0_angular_1644_19647" cx="0" cy="0" r="1" gradientUnits="userSpaceOnUse" gradientTransform="translate(545.045 380.7) rotate(-93.7522) scale(98.7804 121.551)">
<stop stop-color="#FFA502"/>
<stop offset="1" stop-color="#C85120"/>
</radialGradient>
<radialGradient id="paint1_angular_1644_19647" cx="0" cy="0" r="1" gradientUnits="userSpaceOnUse" gradientTransform="translate(-16.4417 175.543) rotate(103.246) scale(210.118 926.405)">
<stop stop-color="#FFA502"/>
<stop offset="1" stop-color="#C85120"/>
</radialGradient>
<radialGradient id="paint2_angular_1644_19647" cx="0" cy="0" r="1" gradientUnits="userSpaceOnUse" gradientTransform="translate(425.276 353.435) rotate(-95.7969) scale(35.07 66.4058)">
<stop stop-color="#FFA502"/>
<stop offset="1" stop-color="#C85120"/>
</radialGradient>
<radialGradient id="paint3_angular_1644_19647" cx="0" cy="0" r="1" gradientUnits="userSpaceOnUse" gradientTransform="translate(440.503 430.923) rotate(26.7122) scale(113.043 121.967)">
<stop stop-color="#FFA502"/>
<stop offset="1" stop-color="#C85120"/>
</radialGradient>
<radialGradient id="paint4_angular_1644_19647" cx="0" cy="0" r="1" gradientUnits="userSpaceOnUse" gradientTransform="translate(541.822 350.949) rotate(-105.284) scale(36.17 173.315)">
<stop stop-color="#FFA502"/>
<stop offset="1" stop-color="#C85120"/>
</radialGradient>
</defs>
</svg>
