<svg version="1.1" xmlns="http://www.w3.org/2000/svg">
<defs>
<symbol id="icon-eye-slash" viewBox="0 0 32 32">
  <path d="M28.305 13.486c-0.768-1.28-2.048-3.019-3.829-4.552l2.893-2.893c0.391-0.391 0.391-1.024 0-1.415s-1.024-0.391-1.415 0l-21.335 21.333c-0.391 0.391-0.391 1.024 0 1.415 0.195 0.195 0.451 0.293 0.707 0.293s0.512-0.097 0.707-0.293l3.080-3.080c2.112 1.349 4.423 2.040 6.883 2.040 6.596 0 10.541-4.897 12.308-7.82 0.931-1.551 0.931-3.476 0.001-5.028zM19.662 16c0 2.023-1.645 3.667-3.667 3.667-0.637 0-1.239-0.176-1.775-0.477l4.963-4.963c0.303 0.535 0.479 1.136 0.479 1.773zM26.593 17.483c-1.547 2.559-4.98 6.851-10.595 6.851-1.921 0-3.731-0.527-5.412-1.511l2.18-2.18c0.937 0.66 2.051 1.024 3.228 1.024 3.124 0 5.667-2.543 5.667-5.667 0-1.177-0.364-2.291-1.024-3.228l2.423-2.423c1.643 1.384 2.825 2.989 3.531 4.164 0.548 0.917 0.548 2.056 0.003 2.969zM5.504 21.044c-0.664-0.787-1.273-1.637-1.811-2.528-0.928-1.555-0.928-3.48-0.001-5.029 1.767-2.923 5.712-7.82 12.308-7.82 1.275 0 2.507 0.184 3.767 0.563 0.528 0.159 0.829 0.716 0.669 1.245-0.159 0.529-0.716 0.829-1.245 0.669-1.071-0.321-2.115-0.477-3.192-0.477-5.613 0-9.048 4.292-10.595 6.851-0.545 0.913-0.545 2.052 0.003 2.969 0.481 0.797 1.028 1.561 1.625 2.268 0.356 0.421 0.303 1.053-0.119 1.409-0.188 0.159-0.416 0.236-0.644 0.236-0.285 0-0.568-0.121-0.765-0.356zM16.25 11.247c0.084 0.545-0.289 1.056-0.836 1.14-1.547 0.239-2.792 1.485-3.031 3.031-0.076 0.495-0.501 0.848-0.987 0.848-0.051 0-0.103-0.004-0.153-0.012-0.547-0.084-0.92-0.595-0.836-1.14 0.376-2.437 2.267-4.327 4.703-4.703 0.537-0.083 1.055 0.291 1.14 0.836z"></path>
</symbol>
<symbol id="icon-eye-open" viewBox="0 0 32 32">
  <path d="M28.305 13.488c-1.753-2.92-5.684-7.821-12.305-7.821-6.62 0-10.552 4.9-12.305 7.821-0.929 1.549-0.929 3.473 0 5.024 1.755 2.92 5.685 7.821 12.305 7.821 6.621 0 10.552-4.9 12.305-7.821 0.931-1.549 0.931-3.473 0-5.024zM26.59 17.484c-1.536 2.559-4.955 6.851-10.591 6.851s-9.055-4.292-10.591-6.851c-0.548-0.915-0.548-2.052 0-2.965 1.536-2.559 4.956-6.851 10.591-6.851 5.637 0 9.056 4.292 10.591 6.851 0.549 0.913 0.549 2.051 0 2.965zM16 10.335c-3.124 0-5.667 2.543-5.667 5.667s2.543 5.667 5.667 5.667c3.124 0 5.667-2.543 5.667-5.667s-2.543-5.667-5.667-5.667zM16 19.668c-2.023 0-3.667-1.644-3.667-3.667s1.644-3.667 3.667-3.667c2.023 0 3.667 1.644 3.667 3.667s-1.644 3.667-3.667 3.667z"></path>
</symbol>
<symbol id="icon-google" viewBox="0 0 32 32">
  <path fill="#fff" style="fill: #fff" d="M11.634 3.397c-2.696 0.935-5.021 2.71-6.633 5.064s-2.428 5.163-2.325 8.015c0.102 2.852 1.116 5.595 2.893 7.828s4.223 3.837 6.979 4.577c2.234 0.576 4.575 0.602 6.821 0.074 2.035-0.457 3.916-1.435 5.46-2.837 1.606-1.504 2.772-3.418 3.373-5.535 0.652-2.303 0.768-4.724 0.339-7.078h-12.546v5.204h7.266c-0.145 0.83-0.456 1.622-0.915 2.329s-1.055 1.314-1.754 1.785c-0.887 0.587-1.887 0.982-2.936 1.159-1.052 0.196-2.131 0.196-3.183 0-1.066-0.22-2.075-0.66-2.962-1.292-1.425-1.008-2.494-2.441-3.056-4.094-0.571-1.683-0.571-3.508 0-5.192 0.4-1.18 1.062-2.254 1.935-3.143 1-1.036 2.265-1.776 3.658-2.139s2.858-0.337 4.237 0.078c1.077 0.33 2.061 0.908 2.875 1.686 0.819-0.815 1.637-1.632 2.454-2.452 0.422-0.441 0.881-0.86 1.296-1.311-1.243-1.156-2.701-2.056-4.292-2.648-2.897-1.052-6.067-1.080-8.982-0.080z"></path>
  <path fill="#e33629" style="fill: #e33629" d="M11.824 3.413c2.975-1.021 6.209-0.993 9.165 0.080 1.624 0.608 3.111 1.53 4.377 2.715-0.43 0.46-0.884 0.891-1.323 1.338-0.835 0.833-1.668 1.663-2.502 2.491-0.831-0.794-1.835-1.384-2.934-1.721-1.406-0.425-2.902-0.454-4.323-0.084s-2.713 1.123-3.735 2.179c-0.891 0.907-1.566 2.003-1.975 3.207l-4.459-3.452c1.596-3.165 4.36-5.586 7.707-6.752z"></path>
  <path fill="#f8bd00" style="fill: #f8bd00" d="M2.933 13.584c0.239-1.188 0.637-2.338 1.183-3.42l4.459 3.461c-0.583 1.718-0.583 3.58 0 5.298-1.486 1.147-2.972 2.3-4.459 3.459-1.366-2.718-1.782-5.815-1.183-8.797z"></path>
  <path fill="#587dbd" style="fill: #587dbd" d="M16.272 13.724h12.803c0.438 2.403 0.319 4.873-0.346 7.223-0.613 2.161-1.802 4.113-3.442 5.649-1.439-1.123-2.884-2.237-4.323-3.36 0.713-0.481 1.322-1.101 1.79-1.824s0.785-1.531 0.933-2.379h-7.415c-0.002-1.768 0-3.538 0-5.309z"></path>
  <path fill="#319f43" style="fill: #319f43" d="M4.115 22.382c1.487-1.147 2.973-2.3 4.459-3.459 0.575 1.687 1.668 3.149 3.123 4.177 0.908 0.642 1.939 1.087 3.029 1.308 1.073 0.2 2.175 0.2 3.248 0 1.070-0.181 2.091-0.584 2.996-1.183 1.439 1.123 2.884 2.237 4.323 3.36-1.575 1.432-3.495 2.43-5.571 2.897-2.292 0.539-4.681 0.513-6.961-0.075-1.803-0.481-3.487-1.33-4.947-2.493-1.545-1.227-2.807-2.773-3.7-4.532z"></path>
</symbol>
<symbol id="icon-go-back" viewBox="0 0 32 32">
  <path stroke-linejoin="round" stroke-linecap="round" stroke-miterlimit="10" stroke-width="2.6667" d="M21.507 4l-10.307 10.307c-0.933 0.933-0.933 2.453 0 3.4l10.307 10.293"></path>
</symbol>
<symbol id="icon-checked" viewBox="0 0 45 32">
  <path fill="#4ecb71" style="fill: #4ecb71" d="M14.721 25.371l-8.4-8.4c-0.22-0.222-0.481-0.399-0.77-0.519s-0.598-0.183-0.91-0.183c-0.313 0-0.622 0.062-0.91 0.183s-0.55 0.297-0.77 0.519c-0.222 0.22-0.399 0.481-0.519 0.77s-0.183 0.598-0.183 0.91c0 0.313 0.062 0.622 0.183 0.91s0.297 0.55 0.519 0.77l10.056 10.056c0.936 0.936 2.448 0.936 3.384 0l25.44-25.416c0.222-0.22 0.399-0.481 0.519-0.77s0.182-0.598 0.182-0.91-0.062-0.622-0.182-0.91c-0.121-0.288-0.297-0.55-0.519-0.77-0.22-0.222-0.481-0.399-0.77-0.519s-0.598-0.182-0.91-0.182c-0.313 0-0.622 0.062-0.91 0.182s-0.55 0.297-0.77 0.519l-23.76 23.76z"></path>
</symbol>
<symbol id="icon-rules" viewBox="0 0 32 32">
  <path fill="none" stroke-linejoin="round" stroke-linecap="round" stroke-miterlimit="4" stroke-width="2.2857" d="M16 29.714c7.543 0 13.714-6.171 13.714-13.714s-6.171-13.714-13.714-13.714c-7.543 0-13.714 6.171-13.714 13.714s6.171 13.714 13.714 13.714z"></path>
  <path fill="none" stroke-linejoin="round" stroke-linecap="round" stroke-miterlimit="4" stroke-width="2.2857" d="M16 9.905v7.619"></path>
  <path d="M17.524 22.095c0 0.842-0.682 1.524-1.524 1.524s-1.524-0.682-1.524-1.524c0-0.842 0.682-1.524 1.524-1.524s1.524 0.682 1.524 1.524z"></path>
</symbol>
<symbol id="icon-success" viewBox="0 0 177 177">
  <path d="M88.5 154.875C125.158 154.875 154.875 125.158 154.875 88.5C154.875 51.8421 125.158 22.125 88.5 22.125C51.8421 22.125 22.125 51.8421 22.125 88.5C22.125 125.158 51.8421 154.875 88.5 154.875Z" stroke="#246E8C" stroke-width="14" stroke-miterlimit="10" stroke-linecap="round" stroke-linejoin="round" />
  <path d="M81.125 103.25L110.625 73.75" stroke="#246E8C" stroke-width="14" stroke-miterlimit="10" stroke-linecap="round" stroke-linejoin="round" />
  <path d="M66.375 88.5L81.125 103.25" stroke="#246E8C" stroke-width="14" stroke-miterlimit="10" stroke-linecap="round" stroke-linejoin="round" />
</symbol>
<!-- <symbol id="icon-logo" viewBox="0 0 34 32">
  <path fill="#ff0008" style="fill: #ff0008" d="M32.068 8.043c0 9.081-14.469 16.431-15.085 16.734-0.162 0.081-0.344 0.124-0.528 0.124s-0.366-0.043-0.528-0.124c-0.616-0.304-15.085-7.654-15.085-16.734 0.003-2.132 0.914-4.177 2.534-5.684s3.817-2.356 6.109-2.358c2.879 0 5.399 1.152 6.97 3.099 1.571-1.947 4.091-3.099 6.97-3.099 2.291 0.002 4.488 0.851 6.109 2.358s2.532 3.552 2.534 5.684z"></path>
  <path fill="#094fbb" style="fill: #094fbb; stroke: #fff" stroke="#fff" stroke-linejoin="miter" stroke-linecap="butt" stroke-miterlimit="4" stroke-width="1.1662" d="M13.65 27.98l1.509 1.729c0.759 0.902 1.927 1.35 3.094 1.188l0.146-0.020 2.167-0.38 2.254-0.57 2.041-0.761 1.481-0.624c0.045-0.019 0.088-0.041 0.129-0.067l1.339-0.843c0.247-0.156 0.166-0.536-0.124-0.576l-0.945-0.087c-0.221-0.020-0.439-0.060-0.653-0.117l-1.226-0.33-1.277-0.417-1.277-0.48-1.103-0.58-2.041-1.168-1.723-1.214c-0.154-0.108-0.299-0.228-0.436-0.357l-0.431-0.408c-0.558-0.529-0.873-1.263-0.873-2.031 0-0.145-0.011-0.29-0.034-0.434l-0.121-0.771-0.089-0.679c-0.024-0.187-0.063-0.372-0.114-0.553l-0.025-0.089c-0.048-0.169-0.108-0.334-0.181-0.494-0.094-0.208-0.209-0.405-0.342-0.59l-0.1-0.138-0.064-0.097c-0.182-0.278-0.4-0.531-0.646-0.754l-0.431-0.389-0.871-1.014-1.006-1.286-1.064-1.693-0.658-0.915-0.59-0.761-0.202-0.279c-0.121-0.167-0.283-0.301-0.47-0.389-0.093-0.044-0.191-0.075-0.292-0.094l-0.057-0.011c-0.213-0.040-0.433-0.038-0.646 0.006-0.107 0.022-0.212 0.054-0.312 0.097l-0.139 0.059c-0.121 0.051-0.233 0.123-0.329 0.213l-0.026 0.024c-0.135 0.126-0.232 0.288-0.279 0.466-0.022 0.083-0.033 0.169-0.033 0.255v0.549l0.053 0.385c0.036 0.262 0.098 0.519 0.186 0.768l0.245 0.694 0.348 1.059 0.377 0.851 0.358 0.86 0.281 0.715 0.080 0.167c0.021 0.044-0.011 0.096-0.060 0.096-0.013 0-0.025-0.004-0.036-0.011l-0.39-0.252-0.745-0.561-0.816-0.643c-0.146-0.115-0.283-0.24-0.411-0.374l-0.679-0.713-0.555-0.729c-0.139-0.183-0.262-0.379-0.367-0.584l-0.229-0.449c-0.097-0.189-0.178-0.386-0.242-0.589l-0.213-0.668c-0.122-0.382-0.183-0.78-0.183-1.18v-1.036c0-0.288 0.032-0.575 0.095-0.856l0.156-0.691 0.242-0.996 0.213-0.833 0.145-0.779 0.093-0.611c0.009-0.058 0.013-0.116 0.013-0.174v-0.391c0-0.087-0.038-0.17-0.104-0.227-0.090-0.078-0.217-0.095-0.324-0.044l-0.352 0.167c-0.117 0.056-0.221 0.136-0.304 0.236l-0.585 0.702c-0.189 0.227-0.352 0.475-0.485 0.739l-0.612 1.214-0.571 1.512-0.236 0.919c-0.081 0.316-0.122 0.64-0.122 0.966v2.092c0 0.371 0.053 0.74 0.158 1.096l0.055 0.188 0.977 2.182 1.412 2.499 2.041 2.825 2.186 2.499 4.082 3.821 1.896 2.010z"></path>
  <path fill="#ffd900" style="fill: #ffd900; stroke: #fff" stroke="#fff" stroke-linejoin="miter" stroke-linecap="butt" stroke-miterlimit="4" stroke-width="1.1662" d="M19.162 23.229l-0.971-0.637c-0.087-0.057-0.169-0.12-0.247-0.19-0.487-0.436-0.74-1.075-0.683-1.726l0.162-1.866c0.021-0.246 0.066-0.489 0.133-0.726l0.192-0.677c0.067-0.236 0.159-0.464 0.276-0.68 0.119-0.221 0.262-0.428 0.426-0.617l0.187-0.215 1.253-1.167 1.435-1.695 1.182-1.861 0.459-0.803c0.131-0.229 0.285-0.445 0.46-0.643l0.361-0.409c0.183-0.207 0.396-0.384 0.632-0.527l0.142-0.085c0.179-0.108 0.375-0.183 0.579-0.223l0.125-0.024c0.186-0.036 0.378-0.029 0.561 0.022 0.15 0.041 0.291 0.111 0.416 0.204l0.189 0.143c0.091 0.069 0.17 0.153 0.232 0.249 0.103 0.159 0.158 0.345 0.158 0.535v0.57c0 0.258-0.034 0.515-0.102 0.765l-0.15 0.55-0.384 1.176-0.637 1.315-0.556 1.037-0.233 0.622c-0.007 0.018-0.010 0.036-0.010 0.055 0 0.1 0.092 0.175 0.19 0.154l0.123-0.026c0.027-0.006 0.053-0.015 0.076-0.029l0.438-0.252c0.155-0.089 0.303-0.191 0.443-0.303l0.892-0.72 0.998-1.029c0.143-0.147 0.274-0.305 0.391-0.473l0.751-1.070c0.122-0.174 0.23-0.358 0.322-0.55l0.171-0.356c0.117-0.243 0.208-0.497 0.272-0.759l0.078-0.32c0.105-0.429 0.136-0.872 0.092-1.311l-0.075-0.753-0.192-1.139-0.313-1.398-0.172-1.028-0.222-0.861-0.099-0.425c-0.014-0.062-0.022-0.125-0.022-0.189v-0.395c0-0.090 0.053-0.171 0.136-0.207 0.049-0.022 0.105-0.025 0.156-0.009l0.126 0.039c0.064 0.020 0.124 0.050 0.178 0.090l0.335 0.249c0.153 0.114 0.295 0.243 0.424 0.384l0.423 0.464 0.43 0.601c0.124 0.173 0.234 0.356 0.328 0.548l0.364 0.74 0.535 1.398 0.245 0.79c0.072 0.232 0.122 0.47 0.15 0.712l0.12 1.054v2.236c0 0.278-0.055 0.553-0.162 0.81l-0.849 1.62-1.172 2.158-1.485 2.213-1.728 2.102-1.738 1.889-1.687 1.658-0.976 0.933c-0.127 0.122-0.311 0.165-0.479 0.114l-0.99-0.454-1.192-0.593-1.223-0.778z"></path>
  <path fill="#ffd900" style="fill: #ffd900; stroke: #fff" stroke="#fff" stroke-linejoin="miter" stroke-linecap="butt" stroke-miterlimit="4" stroke-width="1.1662" d="M6.22 27.473l-0.501 0.061c-0.212 0.026-0.321 0.268-0.2 0.444 0.022 0.032 0.050 0.058 0.082 0.079l0.783 0.494 2.031 0.942 1.267 0.435 1.335 0.407 2.070 0.525 0.761 0.165c0.021 0.005 0.043 0.007 0.065 0.007h0.185c0.067 0 0.121-0.054 0.121-0.121 0-0.033-0.013-0.064-0.037-0.087l-0.302-0.29-0.88-0.933-0.687-0.733-0.996-0.996-0.716-0.788c-0.348-0.37-0.879-0.506-1.363-0.349l-0.32 0.104-0.851 0.244-0.9 0.226-0.948 0.163z"></path>
</symbol> -->
<!-- <symbol id="icon-burger" viewBox="0 0 32 32">
  <path d="M4.667 6.667c-0.736 0-1.333 0.597-1.333 1.333s0.597 1.333 1.333 1.333v0h22.667c0.736 0 1.333-0.597 1.333-1.333s-0.597-1.333-1.333-1.333v0zM3.333 16c0-0.736 0.597-1.333 1.333-1.333v0h22.667c0.736 0 1.333 0.597 1.333 1.333s-0.597 1.333-1.333 1.333v0h-22.667c-0.736 0-1.333-0.597-1.333-1.333v0zM3.333 24.001c0-0.736 0.597-1.333 1.333-1.333v0h22.667c0.736 0 1.333 0.597 1.333 1.333s-0.597 1.333-1.333 1.333v0h-22.667c-0.736 0-1.333-0.597-1.333-1.333v0z"></path>
</symbol> -->
<symbol id="icon-arrow-bottom" viewBox="0 0 32 32">
  <path stroke-linejoin="miter" stroke-linecap="butt" stroke-miterlimit="4" stroke-width="0.6" d="M31.744 8.519c0-0.269-0.106-0.544-0.313-0.75-0.412-0.412-1.087-0.412-1.5 0l-14.119 14.119-13.912-13.912c-0.413-0.412-1.087-0.412-1.5 0s-0.412 1.088 0 1.5l14.662 14.669c0.412 0.412 1.087 0.412 1.5 0l14.869-14.869c0.213-0.213 0.313-0.481 0.313-0.756z"></path>
</symbol>
<symbol id="icon-arrow-up" viewBox="0 0 32 32">
  <path d="M0.256 23.481c0 0.269 0.106 0.544 0.313 0.75 0.412 0.413 1.087 0.413 1.5 0l14.119-14.119 13.913 13.912c0.413 0.413 1.087 0.413 1.5 0s0.413-1.087 0-1.5l-14.663-14.669c-0.413-0.412-1.088-0.412-1.5 0l-14.869 14.869c-0.213 0.212-0.313 0.481-0.313 0.756z"></path>
</symbol>
<!-- <symbol id="icon-user" viewBox="0 0 32 32">
  <path d="M16.007 15.638c2.879 0 5.357-2.571 5.357-5.92 0-3.307-2.491-5.758-5.357-5.758s-5.357 2.505-5.357 5.786c0 3.321 2.491 5.893 5.357 5.893zM7.596 28.040h16.822c2.103 0 2.853-0.602 2.853-1.781 0-3.455-4.326-8.223-11.263-8.223-6.951 0-11.277 4.767-11.277 8.223 0 1.179 0.75 1.781 2.866 1.781z"></path>
</symbol> -->
<symbol id="icon-pagin-arrow" viewBox="0 0 32 32">
  <path fill="#a7552b" style="fill: #a7552b" d="M8.065 0c-0.269 0-0.544 0.106-0.75 0.313-0.412 0.412-0.412 1.087 0 1.5l14.119 14.119-13.912 13.913c-0.412 0.412-0.412 1.087 0 1.5s1.088 0.412 1.5 0l14.669-14.663c0.412-0.413 0.412-1.088 0-1.5l-14.869-14.869c-0.213-0.212-0.481-0.313-0.756-0.313z"></path>
</symbol>
<symbol id="icon-tel" viewBox="0 0 32 32">
  <path d="M22.075 17.208l-0.607 0.604c0 0-1.444 1.435-5.384-2.483s-2.496-5.352-2.496-5.352l0.381-0.381c0.943-0.936 1.032-2.44 0.209-3.539l-1.68-2.244c-1.019-1.36-2.985-1.54-4.152-0.38l-2.093 2.080c-0.577 0.576-0.964 1.32-0.917 2.147 0.12 2.116 1.077 6.667 6.416 11.976 5.663 5.629 10.976 5.853 13.148 5.651 0.688-0.064 1.285-0.413 1.767-0.893l1.893-1.883c1.28-1.271 0.92-3.451-0.717-4.34l-2.547-1.385c-1.075-0.583-2.381-0.412-3.221 0.423z"></path>
</symbol>
<symbol id="icon-mail" viewBox="0 0 43 32">
  <path d="M41.833 10.583c0.333-0.25 0.833 0 0.833 0.417v17c0 2.25-1.833 4-4 4h-34.667c-2.25 0-4-1.75-4-4v-17c0-0.417 0.417-0.667 0.75-0.417 1.917 1.5 4.333 3.333 12.833 9.5 1.75 1.25 4.75 4 7.75 4 2.917 0 6-2.75 7.667-4 8.5-6.167 10.916-8 12.833-9.5zM21.333 21.333c-2 0.083-4.75-2.417-6.167-3.417-11.083-8-11.917-8.75-14.417-10.75-0.5-0.333-0.75-0.917-0.75-1.583v-1.583c0-2.167 1.75-4 4-4h34.667c2.167 0 4 1.833 4 4v1.583c0 0.667-0.333 1.25-0.833 1.583-2.5 2-3.333 2.75-14.417 10.75-1.417 1-4.167 3.5-6.083 3.417z"></path>
</symbol>
<symbol id="icon-animals" viewBox="0 0 30 32">
  <path stroke="none" d="M11.4 17.426c0 0.282-0.084 0.557-0.24 0.792s-0.379 0.417-0.64 0.525-0.547 0.136-0.823 0.081c-0.276-0.055-0.53-0.191-0.73-0.39s-0.335-0.453-0.39-0.73-0.027-0.563 0.081-0.823c0.108-0.26 0.29-0.483 0.525-0.64s0.51-0.24 0.792-0.24c0.378 0 0.74 0.15 1.008 0.417s0.417 0.63 0.417 1.008zM20.425 16.001c-0.282 0-0.557 0.084-0.792 0.24s-0.417 0.379-0.525 0.64c-0.108 0.26-0.136 0.547-0.081 0.823s0.191 0.53 0.39 0.73c0.199 0.199 0.453 0.335 0.73 0.39s0.563 0.027 0.823-0.081c0.26-0.108 0.483-0.291 0.64-0.525s0.24-0.51 0.24-0.792c0-0.378-0.15-0.74-0.417-1.008s-0.63-0.417-1.008-0.417zM27.55 6.501v10.45c0 6.285-5.54 11.4-12.35 11.4s-12.35-5.115-12.35-11.4v-10.45c0-0.376 0.112-0.743 0.321-1.055s0.505-0.556 0.853-0.699c0.347-0.144 0.729-0.181 1.097-0.108s0.707 0.254 0.973 0.52c0.017 0.017 0.031 0.032 0.045 0.049l2.056 2.363c2.102-1.317 4.532-2.015 7.012-2.015s4.91 0.698 7.012 2.015l2.044-2.363c0.014-0.017 0.028-0.032 0.045-0.049 0.266-0.266 0.604-0.446 0.973-0.52s0.75-0.036 1.097 0.108 0.644 0.387 0.852 0.699c0.209 0.312 0.32 0.679 0.321 1.055zM25.65 6.501l-2.56 2.945c-0.157 0.181-0.376 0.297-0.614 0.323s-0.477-0.038-0.67-0.18c-0.58-0.429-1.201-0.797-1.856-1.098v2.761c0 0.252-0.1 0.494-0.278 0.672s-0.42 0.278-0.672 0.278-0.494-0.1-0.672-0.278c-0.178-0.178-0.278-0.42-0.278-0.672v-3.438c-0.623-0.16-1.259-0.268-1.9-0.323v3.761c0 0.252-0.1 0.494-0.278 0.672s-0.42 0.278-0.672 0.278c-0.252 0-0.494-0.1-0.672-0.278s-0.278-0.42-0.278-0.672v-3.761c-0.641 0.055-1.277 0.163-1.9 0.323v3.438c0 0.252-0.1 0.494-0.278 0.672s-0.42 0.278-0.672 0.278c-0.252 0-0.494-0.1-0.672-0.278s-0.278-0.42-0.278-0.672v-2.761c-0.655 0.302-1.277 0.67-1.856 1.098-0.192 0.143-0.431 0.208-0.669 0.182s-0.458-0.14-0.615-0.321l-2.56-2.949v10.45c0 4.947 4.181 9.025 9.5 9.461v-2.418l-1.622-1.622c-0.088-0.088-0.158-0.193-0.206-0.308s-0.072-0.239-0.072-0.364 0.025-0.248 0.072-0.364c0.048-0.115 0.118-0.22 0.206-0.308 0.178-0.178 0.42-0.278 0.672-0.278 0.125 0 0.248 0.025 0.364 0.072s0.22 0.118 0.308 0.206l1.228 1.228 1.228-1.228c0.088-0.088 0.193-0.158 0.308-0.206s0.239-0.072 0.364-0.072c0.125 0 0.248 0.024 0.364 0.072s0.22 0.118 0.308 0.206c0.088 0.088 0.158 0.193 0.206 0.308s0.072 0.239 0.072 0.364c0 0.125-0.024 0.248-0.072 0.364s-0.118 0.22-0.206 0.308l-1.622 1.622v2.418c5.319-0.438 9.5-4.512 9.5-9.461v-10.45z"></path>
</symbol>
<symbol id="icon-army" viewBox="0 0 30 32">
  <path fill="none" stroke-linejoin="round" stroke-linecap="round" stroke-miterlimit="4" stroke-width="2.6667" d="M7.601 8.401l4.433 4.433M12.034 12.834h6.333M12.034 12.834v6.333M22.8 23.6l-4.433-4.433M18.367 19.167v-6.333M18.367 19.167h-6.333M22.8 8.401l-4.433 4.433M7.601 23.6l4.433-4.433M22.8 12.834c0.877 0 1.734-0.26 2.463-0.747s1.297-1.18 1.633-1.99c0.336-0.81 0.423-1.701 0.252-2.561s-0.593-1.65-1.213-2.27c-0.62-0.62-1.41-1.042-2.27-1.213s-1.751-0.083-2.561 0.252c-0.81 0.336-1.503 0.904-1.99 1.633s-0.747 1.586-0.747 2.463M22.8 19.167c0.877 0 1.734 0.26 2.463 0.747s1.297 1.18 1.633 1.99c0.336 0.81 0.423 1.701 0.252 2.561s-0.593 1.65-1.213 2.27c-0.62 0.62-1.41 1.042-2.27 1.213s-1.751 0.083-2.561-0.252c-0.81-0.336-1.503-0.904-1.99-1.633s-0.747-1.586-0.747-2.463M7.601 19.167c-0.877 0-1.734 0.26-2.463 0.747s-1.297 1.18-1.633 1.99-0.423 1.701-0.252 2.561c0.171 0.86 0.593 1.65 1.213 2.27s1.41 1.042 2.27 1.213c0.86 0.171 1.751 0.083 2.561-0.252s1.502-0.904 1.99-1.633c0.487-0.729 0.747-1.586 0.747-2.463M7.601 12.834c-0.877 0-1.734-0.26-2.463-0.747s-1.297-1.18-1.633-1.99c-0.336-0.81-0.423-1.701-0.252-2.561s0.593-1.65 1.213-2.27c0.62-0.62 1.41-1.042 2.27-1.213s1.751-0.083 2.561 0.252c0.81 0.336 1.502 0.904 1.99 1.633s0.747 1.586 0.747 2.463"></path>
</symbol>
<symbol id="icon-clothes" viewBox="0 0 30 32">
  <path stroke="none" d="M29.401 8.070l-6.147-3.351c-0.139-0.077-0.296-0.118-0.455-0.119h-3.8c-0.252 0-0.494 0.1-0.672 0.278s-0.278 0.42-0.278 0.672c0 0.756-0.3 1.481-0.835 2.015s-1.259 0.835-2.015 0.835-1.481-0.3-2.015-0.835c-0.534-0.534-0.835-1.259-0.835-2.015 0-0.252-0.1-0.494-0.278-0.672s-0.42-0.278-0.672-0.278h-3.8c-0.16 0.001-0.316 0.042-0.456 0.119l-6.145 3.351c-0.438 0.232-0.766 0.627-0.913 1.101s-0.1 0.985 0.131 1.424l2.288 4.371c0.166 0.314 0.416 0.577 0.721 0.759s0.655 0.277 1.010 0.275h2.414v9.5c0 0.504 0.2 0.987 0.556 1.344s0.84 0.556 1.344 0.556h13.3c0.504 0 0.987-0.2 1.344-0.556s0.556-0.84 0.556-1.344v-9.5h2.415c0.356 0.002 0.705-0.093 1.010-0.275s0.555-0.445 0.721-0.759l2.288-4.371c0.23-0.439 0.277-0.951 0.13-1.424s-0.476-0.869-0.914-1.1zM4.236 14.1c-0.018 0.001-0.035-0.005-0.049-0.015l-2.276-4.347 4.739-2.586v6.949h-2.414zM21.85 25.5h-13.3v-19h1.995c0.219 1.072 0.802 2.036 1.65 2.729s1.909 1.070 3.004 1.070c1.095 0 2.156-0.378 3.004-1.070s1.431-1.656 1.65-2.729h1.997v19zM26.214 14.083c-0.007 0.006-0.014 0.010-0.023 0.013s-0.017 0.004-0.026 0.003h-2.415v-6.949l4.74 2.586-2.276 4.346z"></path>
</symbol>
<symbol id="icon-dwelling" viewBox="0 0 30 32" fill="none">
  <path stroke-linejoin="round" stroke-linecap="round" stroke-miterlimit="4" stroke-width="2.6667" d="M3.8 12.199l11.4-8.867 11.4 8.867v13.933c0 0.672-0.267 1.316-0.742 1.791s-1.12 0.742-1.791 0.742h-17.733c-0.672 0-1.316-0.267-1.791-0.742s-0.742-1.12-0.742-1.791v-13.933z"></path>
  <path stroke-linejoin="round" stroke-linecap="round" stroke-miterlimit="4" stroke-width="2.6667" d="M11.4 28.667v-12.667h7.6v12.667"></path>
</symbol>
<symbol id="icon-evacuation" viewBox="0 0 30 32">
  <path stroke="none" d="M29.792 19.435l-7.995-2.718-3.342-3.969c-0.291-0.336-0.657-0.607-1.072-0.792s-0.868-0.281-1.327-0.281h-8.268c-0.506-0-1.004 0.117-1.451 0.34s-0.829 0.547-1.114 0.943l-2.804 3.896c-0.584 0.811-0.896 1.769-0.895 2.75v7.72c0 0.259 0.109 0.508 0.303 0.692s0.457 0.286 0.731 0.286h2.215c0.225 0.839 0.739 1.584 1.462 2.116s1.612 0.821 2.527 0.821c0.915 0 1.805-0.289 2.527-0.821s1.237-1.276 1.462-2.116h6.498c0.225 0.839 0.739 1.584 1.462 2.116s1.612 0.821 2.527 0.821 1.805-0.289 2.527-0.821c0.722-0.532 1.237-1.276 1.462-2.116h2.215c0.274 0 0.537-0.103 0.731-0.286s0.303-0.432 0.303-0.692v-6.969c0-0.201-0.066-0.398-0.188-0.563s-0.296-0.29-0.496-0.358zM8.762 29.28c-0.409 0-0.809-0.115-1.149-0.33s-0.605-0.52-0.762-0.878-0.197-0.751-0.118-1.13c0.080-0.379 0.277-0.728 0.566-1.002s0.658-0.46 1.059-0.535 0.817-0.037 1.195 0.111c0.378 0.148 0.701 0.399 0.928 0.72s0.349 0.7 0.349 1.087c-0.001 0.519-0.219 1.016-0.607 1.382s-0.913 0.573-1.461 0.574zM23.238 29.28c-0.409 0-0.809-0.115-1.149-0.33s-0.605-0.52-0.762-0.878c-0.157-0.358-0.198-0.751-0.118-1.13s0.277-0.728 0.566-1.002c0.289-0.274 0.658-0.46 1.059-0.535s0.817-0.037 1.195 0.111c0.378 0.148 0.701 0.399 0.928 0.72s0.349 0.7 0.349 1.087c-0.001 0.519-0.219 1.016-0.606 1.382s-0.913 0.573-1.462 0.574zM28.408 26.346h-1.181c-0.225-0.839-0.739-1.584-1.462-2.116s-1.612-0.821-2.527-0.821-1.805 0.289-2.527 0.821c-0.722 0.532-1.237 1.276-1.462 2.116h-6.498c-0.225-0.839-0.739-1.584-1.462-2.116s-1.612-0.821-2.527-0.821c-0.915 0-1.805 0.289-2.527 0.821s-1.237 1.276-1.462 2.116h-1.181v-6.742c-0-0.589 0.187-1.164 0.538-1.651l2.803-3.894c0.095-0.132 0.222-0.24 0.371-0.315s0.315-0.114 0.484-0.114h8.268c0.151-0 0.299 0.030 0.436 0.090s0.257 0.148 0.354 0.257l3.516 4.174c0.12 0.142 0.279 0.25 0.459 0.311l7.588 2.579v5.303z"></path>
  <path stroke-linejoin="miter" stroke-linecap="round" stroke-miterlimit="4" stroke-width="1.7415" d="M6.748 10.994l-5.224-5.224"></path>
  <path stroke-linejoin="miter" stroke-linecap="round" stroke-miterlimit="4" stroke-width="1.7415" d="M12.222 9.674l-0.076-7.388"></path>
  <path stroke-linejoin="miter" stroke-linecap="round" stroke-miterlimit="4" stroke-width="1.7415" d="M17.196 10.981l5.579-4.844"></path>
</symbol>
<symbol id="icon-food" viewBox="0 0 30 32">
  <path stroke="none" d="M10.64 7.641c-0.456 0-0.76 0.456-0.76 0.76v3.8h-1.52v-3.8c0-0.456-0.304-0.76-0.76-0.76s-0.76 0.456-0.76 0.76v3.8h-1.52v-3.8c0-0.456-0.304-0.76-0.76-0.76s-0.76 0.456-0.76 0.76v5.016c0 1.368 1.064 2.432 2.28 2.584v10.64c0 0.912 0.608 1.52 1.52 1.52s1.52-0.608 1.52-1.52v-10.64c1.216-0.152 2.28-1.216 2.28-2.584v-5.016c0-0.304-0.304-0.76-0.76-0.76zM13.68 8.401v9.12h1.52v9.12c0 0.912 0.608 1.52 1.52 1.52s1.52-0.608 1.52-1.52v-22.8c-2.584 0-4.56 1.976-4.56 4.56zM24.32 6.881c-2.128 0-3.8 2.28-3.8 5.016-0.152 1.824 0.76 3.496 2.28 4.56v10.184c0 0.912 0.608 1.52 1.52 1.52s1.52-0.608 1.52-1.52v-10.184c1.52-1.064 2.432-2.736 2.28-4.56 0-2.736-1.672-5.016-3.8-5.016z"></path>
</symbol>
<symbol id="icon-law" viewBox="0 0 30 32">
  <path stroke="none" d="M16.625 2.225v2.375h1.872c0.578 0 1.146 0.152 1.647 0.439l2.451 1.398c0.072 0.042 0.152 0.063 0.236 0.063h4.245c0.378 0 0.74 0.15 1.008 0.417s0.417 0.63 0.417 1.008-0.15 0.74-0.417 1.008c-0.267 0.267-0.63 0.417-1.008 0.417h-0.811l4.011 8.915c0.119 0.264 0.154 0.557 0.102 0.842s-0.19 0.546-0.394 0.75l-1.007-1.007 1.005 1.009-0.002 0.004-0.015 0.015-0.012 0.009-0.019 0.019-0.086 0.076c-0.399 0.334-0.838 0.621-1.303 0.855-0.887 0.444-2.172 0.863-3.844 0.863-1.331 0.016-2.647-0.28-3.844-0.863-0.466-0.234-0.904-0.52-1.303-0.855l-0.086-0.076-0.030-0.028-0.019-0.019v-0.002c-0.204-0.204-0.342-0.466-0.394-0.75s-0.017-0.578 0.102-0.842l4.013-8.915h-0.308c-0.58 0-1.148-0.15-1.649-0.439l-2.451-1.398c-0.072-0.041-0.153-0.063-0.236-0.063h-1.87v18.050h4.75c0.378 0 0.74 0.15 1.008 0.417s0.417 0.63 0.417 1.008-0.15 0.74-0.417 1.008c-0.267 0.267-0.63 0.417-1.008 0.417h-12.35c-0.378 0-0.74-0.15-1.008-0.417s-0.417-0.63-0.417-1.008c0-0.378 0.15-0.74 0.417-1.008s0.63-0.417 1.008-0.417h4.75v-18.050h-1.87c-0.083-0-0.164 0.021-0.236 0.063l-2.449 1.4c-0.504 0.285-1.072 0.437-1.651 0.437h-0.308l4.013 8.915c0.119 0.264 0.154 0.557 0.102 0.842s-0.19 0.546-0.394 0.75l-1.007-1.007 1.005 1.009-0.002 0.004-0.004 0.004-0.011 0.011-0.030 0.028-0.085 0.076c-0.399 0.334-0.838 0.621-1.303 0.855-0.887 0.444-2.172 0.863-3.844 0.863-1.331 0.016-2.647-0.28-3.844-0.863-0.466-0.234-0.903-0.52-1.303-0.855l-0.086-0.076-0.030-0.028-0.011-0.011-0.008-0.008v-0.002c-0.205-0.204-0.342-0.466-0.394-0.75s-0.017-0.578 0.102-0.842l4.013-8.915h-0.813c-0.378 0-0.74-0.15-1.008-0.417s-0.417-0.63-0.417-1.008c0-0.378 0.15-0.74 0.417-1.008s0.63-0.417 1.008-0.417h4.245c0.083 0 0.165-0.021 0.237-0.063l2.447-1.4c0.504-0.285 1.072-0.437 1.651-0.437h1.87v-2.375c0-0.378 0.15-0.74 0.417-1.008s0.63-0.417 1.008-0.417c0.378 0 0.74 0.15 1.008 0.417s0.417 0.63 0.417 1.008zM22.22 18.331c0.541 0.256 1.364 0.519 2.48 0.519s1.938-0.262 2.48-0.519l-2.48-5.51-2.48 5.51zM3.22 18.331c0.542 0.256 1.364 0.519 2.48 0.519s1.938-0.262 2.479-0.519l-2.479-5.51-2.479 5.51z"></path>
</symbol>
<symbol id="icon-medicine" viewBox="0 0 30 32">
  <path stroke="none" d="M26.814 9.49c-0.068-0.207-0.199-0.388-0.375-0.516s-0.389-0.197-0.607-0.198h-2.352v-3.618c0-0.572-0.462-1.034-1.034-1.034h-12.403c-0.572 0-1.034 0.462-1.034 1.034v3.618h-2.351c-0.218-0-0.431 0.069-0.607 0.197s-0.308 0.309-0.375 0.517l-2.351 7.232v12.209c0 0.572 0.462 1.034 1.034 1.034h23.773c0.572 0 1.034-0.462 1.034-1.034v-12.209l-2.351-7.232zM11.335 6.451h9.819v2.326h-9.819v-2.326zM26.839 27.639h-21.189v-10.549l1.948-5.988h17.293l1.948 5.988v10.549zM20.767 18.983h-3.488v-3.488c0-0.142-0.116-0.258-0.258-0.258h-1.55c-0.142 0-0.258 0.116-0.258 0.258v3.488h-3.488c-0.142 0-0.258 0.116-0.258 0.258v1.55c0 0.142 0.116 0.258 0.258 0.258h3.488v3.488c0 0.142 0.116 0.258 0.258 0.258h1.55c0.142 0 0.258-0.116 0.258-0.258v-3.488h3.488c0.142 0 0.258-0.116 0.258-0.258v-1.55c0-0.142-0.116-0.258-0.258-0.258z"></path>
</symbol>
<symbol id="icon-household" viewBox="0 0 30 32">
  <path fill="none" stroke-linejoin="miter" stroke-linecap="butt" stroke-miterlimit="4" stroke-width="1.92" d="M22.8 26.767v-0.633M22.8 26.767c0 1.008-0.4 1.974-1.113 2.687s-1.679 1.113-2.687 1.113h-3.167v-0.317l0.279-0.452c1.474-2.396 2.255-5.154 2.255-7.967v-0.13h4.433M22.8 26.767c0 1.008 0.4 1.974 1.113 2.687s1.679 1.113 2.687 1.113h3.167v-0.317l-0.279-0.452c-1.474-2.396-2.255-5.154-2.255-7.967v-0.13h-4.433M22.8 21.7v-20.9M4.434 17.9v-3.167c0-0.84 0.334-1.645 0.928-2.239s1.399-0.928 2.239-0.928c0.84 0 1.645 0.334 2.239 0.928s0.928 1.399 0.928 2.239v3.167M3.167 30.567v-1.305c-0-3.729-0.824-7.412-2.412-10.786l-0.122-0.26v-0.317h13.933v0.317l-0.122 0.26c-1.588 3.374-2.411 7.057-2.412 10.786v1.305h-8.867z"></path>
</symbol>
<symbol id="icon-psychology" viewBox="0 0 30 32">
  <path stroke="none" d="M15.199 22.966c0.718 0 1.393-0.132 2.027-0.395s1.224-0.638 1.773-1.125c0.19-0.169 0.285-0.391 0.285-0.665s-0.095-0.496-0.285-0.665c-0.19-0.169-0.417-0.253-0.68-0.253s-0.501 0.084-0.713 0.253c-0.359 0.274-0.739 0.496-1.14 0.665s-0.823 0.253-1.267 0.253-0.866-0.084-1.267-0.253c-0.401-0.169-0.781-0.391-1.14-0.665-0.211-0.169-0.448-0.253-0.712-0.253s-0.491 0.084-0.681 0.253c-0.19 0.169-0.285 0.391-0.285 0.665s0.095 0.496 0.285 0.665c0.549 0.464 1.14 0.834 1.773 1.108s1.309 0.412 2.027 0.412zM15.199 28.666c-1.752 0-3.399-0.333-4.94-0.998s-2.882-1.568-4.022-2.707c-1.14-1.14-2.042-2.48-2.707-4.022s-0.997-3.188-0.998-4.94c0-1.752 0.333-3.399 0.998-4.94s1.568-2.882 2.707-4.022c1.14-1.14 2.481-2.042 4.022-2.707s3.188-0.997 4.94-0.998c1.752 0 3.399 0.333 4.94 0.998s2.882 1.568 4.022 2.707c1.14 1.14 2.043 2.481 2.708 4.022s0.998 3.188 0.997 4.94c0 1.752-0.333 3.399-0.998 4.94s-1.568 2.882-2.707 4.022c-1.14 1.14-2.48 2.043-4.022 2.708s-3.188 0.998-4.94 0.997zM15.199 26.133c2.829 0 5.225-0.982 7.188-2.945s2.945-4.36 2.945-7.188c0-2.829-0.982-5.225-2.945-7.188s-4.36-2.945-7.188-2.945c-2.829 0-5.225 0.982-7.188 2.945s-2.945 4.359-2.945 7.188c0 2.829 0.982 5.225 2.945 7.188s4.359 2.945 7.188 2.945zM10.766 15.999c0.676 0 1.283-0.211 1.821-0.633s0.956-0.939 1.25-1.552c0.106-0.274 0.111-0.544 0.016-0.808s-0.28-0.428-0.555-0.49c-0.232-0.063-0.464-0.037-0.697 0.080s-0.401 0.29-0.507 0.522c-0.148 0.274-0.332 0.507-0.554 0.697s-0.48 0.285-0.776 0.285c-0.296 0-0.559-0.1-0.792-0.3s-0.412-0.438-0.538-0.713c-0.106-0.232-0.274-0.401-0.507-0.507s-0.464-0.127-0.697-0.063c-0.274 0.063-0.459 0.227-0.554 0.491s-0.079 0.533 0.047 0.807c0.253 0.633 0.654 1.156 1.203 1.568s1.161 0.618 1.837 0.617zM19.633 15.999c0.676 0 1.283-0.211 1.821-0.633s0.956-0.939 1.25-1.552c0.106-0.274 0.111-0.543 0.016-0.807s-0.28-0.427-0.555-0.491c-0.232-0.063-0.464-0.037-0.697 0.080s-0.401 0.29-0.507 0.522c-0.148 0.274-0.332 0.507-0.554 0.697s-0.48 0.285-0.776 0.285c-0.296 0-0.559-0.1-0.792-0.3s-0.412-0.438-0.538-0.713c-0.106-0.232-0.275-0.401-0.507-0.507s-0.464-0.127-0.697-0.063c-0.275 0.063-0.459 0.227-0.554 0.491s-0.079 0.533 0.047 0.807c0.253 0.633 0.654 1.156 1.203 1.568s1.161 0.618 1.837 0.617z"></path>
</symbol>
<symbol id="icon-transport" viewBox="0 0 30 32" stroke="none" >
  <path  d="M27.871 15.937l-7.345-2.64-3.070-3.855c-0.267-0.326-0.603-0.589-0.985-0.77s-0.798-0.273-1.219-0.273h-7.596c-0.465-0-0.922 0.113-1.333 0.331s-0.762 0.532-1.023 0.916l-2.576 3.784c-0.537 0.787-0.823 1.718-0.823 2.671v7.498c0 0.252 0.1 0.494 0.278 0.672s0.42 0.278 0.672 0.278h2.035c0.207 0.815 0.679 1.538 1.343 2.055s1.481 0.797 2.322 0.797 1.658-0.28 2.322-0.797c0.664-0.516 1.136-1.24 1.343-2.055h5.97c0.207 0.815 0.679 1.538 1.343 2.055s1.481 0.797 2.322 0.797c0.841 0 1.658-0.28 2.322-0.797s1.136-1.24 1.343-2.055h2.035c0.252 0 0.493-0.1 0.672-0.278s0.278-0.42 0.278-0.672v-6.769c0-0.196-0.060-0.386-0.173-0.546s-0.272-0.281-0.456-0.348zM8.55 25.5c-0.376 0-0.743-0.111-1.056-0.32s-0.556-0.506-0.7-0.853c-0.144-0.347-0.181-0.729-0.108-1.098s0.254-0.707 0.52-0.973 0.604-0.447 0.973-0.52c0.369-0.073 0.751-0.036 1.098 0.108s0.644 0.387 0.853 0.7c0.209 0.312 0.32 0.68 0.32 1.056-0.001 0.504-0.201 0.987-0.557 1.343s-0.839 0.556-1.343 0.557zM21.85 25.5c-0.376 0-0.743-0.111-1.056-0.32s-0.556-0.506-0.7-0.853c-0.144-0.347-0.181-0.729-0.108-1.098s0.254-0.707 0.52-0.973c0.266-0.266 0.604-0.447 0.973-0.52s0.751-0.036 1.098 0.108 0.644 0.387 0.853 0.7c0.209 0.312 0.32 0.68 0.32 1.056-0.001 0.504-0.201 0.987-0.557 1.343s-0.839 0.556-1.343 0.557zM26.6 22.65h-1.085c-0.207-0.815-0.679-1.539-1.343-2.055s-1.481-0.797-2.322-0.797c-0.841 0-1.658 0.28-2.322 0.797s-1.136 1.24-1.343 2.055h-5.97c-0.207-0.815-0.679-1.539-1.343-2.055s-1.481-0.797-2.322-0.797-1.658 0.28-2.322 0.797c-0.664 0.516-1.136 1.24-1.343 2.055h-1.085v-6.548c-0-0.572 0.172-1.131 0.494-1.604l2.575-3.782c0.087-0.128 0.204-0.233 0.341-0.306s0.29-0.11 0.444-0.11h7.596c0.138-0 0.275 0.030 0.4 0.088s0.236 0.143 0.325 0.249l3.23 4.055c0.11 0.138 0.256 0.242 0.422 0.302l6.971 2.505v5.151z"></path>
</symbol>
<symbol id="icon-other" viewBox="0 0 30 32">
  <path fill="none"  stroke-linejoin="round" stroke-linecap="round" stroke-miterlimit="4" stroke-width="2.6667" d="M11.4 15.999h7.6M15.2 12.2v7.6M9.5 5.233c-3.848 0-6.967 3.119-6.967 6.967 0 6.967 8.233 13.3 12.667 14.773 4.433-1.473 12.667-7.807 12.667-14.773 0-3.848-3.119-6.967-6.967-6.967-2.356 0-4.44 1.17-5.7 2.96-0.642-0.915-1.496-1.662-2.488-2.177s-2.094-0.784-3.212-0.783z"></path>
</symbol>
<symbol id="icon-delete" viewBox="0 0 30 32">
  <path fill="#548ba0" style="fill: #548ba0" d="M14.857 1.143c-2.938 0-5.811 0.871-8.254 2.504s-4.348 3.953-5.472 6.668c-1.125 2.715-1.419 5.702-0.845 8.584s1.988 5.529 4.066 7.607c2.078 2.078 4.725 3.493 7.607 4.066s5.869 0.279 8.584-0.846c2.715-1.125 5.035-3.029 6.668-5.472s2.504-5.316 2.504-8.254c-0.008-3.938-1.575-7.713-4.36-10.497s-6.559-4.352-10.497-4.36zM20.243 19.757c0.215 0.217 0.335 0.509 0.335 0.814s-0.12 0.598-0.335 0.814c-0.218 0.211-0.51 0.329-0.814 0.329s-0.596-0.118-0.814-0.329l-3.757-3.771-3.757 3.771c-0.218 0.211-0.51 0.329-0.814 0.329s-0.596-0.118-0.814-0.329c-0.215-0.217-0.335-0.509-0.335-0.814s0.12-0.598 0.335-0.814l3.771-3.757-3.771-3.757c-0.182-0.222-0.275-0.504-0.261-0.791s0.134-0.558 0.338-0.761c0.203-0.203 0.475-0.323 0.761-0.338s0.569 0.079 0.791 0.261l3.757 3.771 3.757-3.771c0.222-0.182 0.504-0.275 0.791-0.261s0.558 0.134 0.761 0.338c0.203 0.203 0.323 0.475 0.338 0.761s-0.079 0.569-0.261 0.791l-3.771 3.757 3.771 3.757z"></path>
</symbol>
<!-- <symbol id="icon-UA" viewBox="0 0 43 32">
  <path fill="#fff" style="fill: #fff" d="M0 1.067h42.667v29.867h-42.667v-29.867z"></path>
  <path fill="#3195f9" style="fill: #3195f9" d="M-12.8-9.6v51.2h68.267v-51.2h-68.267z"></path>
  <path fill="#feca00" style="fill: #feca00" d="M-12.8 16v25.6h68.267v-25.6h-68.267z"></path>
</symbol>
<symbol id="icon-ENG" viewBox="0 0 46 32">
  <path fill="#fff" style="fill: #fff" d="M0 0h45.714v32h-45.714v-32z"></path>
  <path fill="#2e42a5" style="fill: #2e42a5" d="M0-1.143v34.286h45.714v-34.286h-45.714z"></path>
  <path fill="#fff" style="fill: #fff" d="M-5.090 30.694l10.060 4.254 40.973-31.465 5.306-6.322-10.757-1.422-16.712 13.559-13.452 9.136-15.418 12.26z"></path>
  <path fill="#f50100" style="fill: #f50100" d="M-3.713 33.674l5.125 2.469 47.932-39.57h-7.196l-45.86 37.101z"></path>
  <path fill="#fff" style="fill: #fff" d="M50.805 30.694l-10.060 4.254-40.973-31.465-5.306-6.322 10.757-1.422 16.712 13.559 13.452 9.136 15.418 12.26z"></path>
  <path fill="#f50100" style="fill:  #f50100" d="M50.462 32.832l-5.125 2.469-20.41-16.942-6.051-1.893-24.921-19.285h7.196l24.907 18.827 6.616 2.27 17.788 14.554z"></path>
  <path fill="#f50100" style="fill: #f50100" d="M28.254-4h-10.794v14.286h-20.278v11.429h20.278v14.286h10.794v-14.286h20.357v-11.429h-20.357v-14.286z"></path>
  <path fill="#fff" style="fill:  #fff" d="M17.46-4v-2.857h-2.857v2.857h2.857zM28.254-4h2.857v-2.857h-2.857v2.857zM17.46 10.286v2.857h2.857v-2.857h-2.857zM-2.818 10.286v-2.857h-2.857v2.857h2.857zM-2.818 21.714h-2.857v2.857h2.857v-2.857zM17.46 21.714h2.857v-2.857h-2.857v2.857zM17.46 36h-2.857v2.857h2.857v-2.857zM28.254 36v2.857h2.857v-2.857h-2.857zM28.254 21.714v-2.857h-2.857v2.857h2.857zM48.611 21.714v2.857h2.857v-2.857h-2.857zM48.611 10.286h2.857v-2.857h-2.857v2.857zM28.254 10.286h-2.857v2.857h2.857v-2.857zM17.46-1.143h10.794v-5.714h-10.794v5.714zM20.317 10.286v-14.286h-5.714v14.286h5.714zM-2.818 13.143h20.278v-5.714h-20.278v5.714zM0.039 21.714v-11.429h-5.714v11.429h5.714zM17.46 18.857h-20.278v5.714h20.278v-5.714zM20.317 36v-14.286h-5.714v14.286h5.714zM28.254 33.143h-10.794v5.714h10.794v-5.714zM25.397 21.714v14.286h5.714v-14.286h-5.714zM48.611 18.857h-20.357v5.714h20.357v-5.714zM45.754 10.286v11.429h5.714v-11.429h-5.714zM28.254 13.143h20.357v-5.714h-20.357v5.714zM25.397-4v14.286h5.714v-14.286h-5.714z"></path>
</symbol> -->
<!-- <symbol id="icon-dropdown" viewBox="0 0 31 32">
  <path d="M8.96 13.44l6.4 6.4 6.4-6.4h-12.8z"></path>
</symbol>
<symbol id="icon-dropup" viewBox="0 0 31 32">
  <path d="M15.04 10.56l-6.4 6.4 12.8 0z"></path>
</symbol> -->
<symbol id="icon-triangle" viewBox="0 0 64 32">
  <path fill="#fff" style="fill: #fff" d="M64 32l-32-32-32 32h64z"></path>
</symbol>
<symbol id="icon-delete-image" viewBox="0 0 32 32">
  <path fill="none" stroke="#548ba0" style="stroke: #548ba0" stroke-linejoin="round" stroke-linecap="round" stroke-miterlimit="10" stroke-width="2" d="M16 30c7.732 0 14-6.268 14-14s-6.268-14-14-14c-7.732 0-14 6.268-14 14s6.268 14 14 14z"></path>
  <path fill="none" stroke="#548ba0" style="stroke: #548ba0" stroke-linejoin="round" stroke-linecap="round" stroke-miterlimit="10" stroke-width="2" d="M11.333 11.332l9.333 9.333"></path>
  <path fill="none" stroke="#548ba0" style="stroke: #548ba0" stroke-linejoin="round" stroke-linecap="round" stroke-miterlimit="10" stroke-width="2" d="M20.666 11.332l-9.333 9.333"></path>
</symbol>
<symbol id="icon-right-arrow" viewBox="0 0 32 32">
  <path d="M15.030 4.916c-0.12-0.127-0.214-0.277-0.277-0.441s-0.092-0.338-0.087-0.513c0.005-0.175 0.044-0.347 0.116-0.507s0.174-0.304 0.301-0.424c0.127-0.12 0.277-0.214 0.441-0.277s0.338-0.092 0.513-0.087c0.175 0.005 0.347 0.044 0.507 0.116s0.304 0.174 0.424 0.301l11.333 12c0.234 0.248 0.364 0.575 0.364 0.916s-0.13 0.669-0.364 0.916l-11.333 12.001c-0.12 0.13-0.264 0.235-0.424 0.309s-0.334 0.115-0.511 0.121c-0.177 0.006-0.353-0.023-0.518-0.085s-0.317-0.157-0.445-0.278c-0.129-0.121-0.231-0.267-0.303-0.428s-0.111-0.335-0.114-0.512c-0.004-0.177 0.027-0.352 0.092-0.517s0.161-0.314 0.284-0.441l10.469-11.087-10.469-11.084z"></path>
</symbol>
<symbol id="icon-close" viewBox="0 0 32 32">
  <path d="M24.4 7.611c-0.123-0.124-0.27-0.222-0.431-0.289s-0.334-0.101-0.509-0.101c-0.175 0-0.348 0.034-0.509 0.101s-0.308 0.165-0.431 0.289l-6.52 6.507-6.52-6.52c-0.123-0.123-0.27-0.221-0.431-0.288s-0.334-0.101-0.509-0.101c-0.175 0-0.347 0.034-0.509 0.101s-0.308 0.165-0.431 0.288c-0.123 0.123-0.221 0.27-0.288 0.431s-0.101 0.334-0.101 0.509c0 0.175 0.034 0.347 0.101 0.509s0.165 0.308 0.288 0.431l6.52 6.52-6.52 6.52c-0.123 0.123-0.221 0.27-0.288 0.431s-0.101 0.334-0.101 0.509c0 0.175 0.034 0.347 0.101 0.509s0.165 0.308 0.288 0.431c0.123 0.123 0.27 0.221 0.431 0.288s0.334 0.101 0.509 0.101c0.175 0 0.347-0.034 0.509-0.101s0.308-0.165 0.431-0.288l6.52-6.52 6.52 6.52c0.123 0.123 0.27 0.221 0.431 0.288s0.334 0.101 0.509 0.101c0.175 0 0.347-0.034 0.509-0.101s0.308-0.165 0.431-0.288c0.123-0.123 0.221-0.27 0.288-0.431s0.101-0.334 0.101-0.509c0-0.175-0.034-0.347-0.101-0.509s-0.165-0.308-0.288-0.431l-6.52-6.52 6.52-6.52c0.507-0.507 0.507-1.36 0-1.867z"></path>
</symbol>
<symbol id="icon-active" viewBox="0 0 30 32">
  <path fill="none" stroke="#f9f9fc" stroke-linejoin="round" stroke-linecap="round" stroke-miterlimit="10" stroke-width="3.5556" d="M13.704 25.852c6.218 0 11.259-5.041 11.259-11.259s-5.041-11.259-11.259-11.259c-6.218 0-11.259 5.041-11.259 11.259s5.041 11.259 11.259 11.259z"></path>
  <path fill="none" stroke="#f9f9fc" stroke-linejoin="round" stroke-linecap="round" stroke-miterlimit="10" stroke-width="3.5556" d="M27.779 28.667l-5.63-5.63"></path>
</symbol>
<symbol id="icon-inProcess" viewBox="0 0 30 32">
  <path fill="none" stroke="#f9f9fc" stroke-linejoin="round" stroke-linecap="round" stroke-miterlimit="10" stroke-width="3.5556" d="M13.704 25.852c6.218 0 11.259-5.041 11.259-11.259s-5.041-11.259-11.259-11.259c-6.218 0-11.259 5.041-11.259 11.259s5.041 11.259 11.259 11.259z"></path>
  <path fill="none" stroke="#f9f9fc" stroke-linejoin="round" stroke-linecap="round" stroke-miterlimit="10" stroke-width="3.5556" d="M27.779 28.667l-5.63-5.63"></path>
</symbol>
<symbol id="icon-done" viewBox="0 0 30 32">
  <path fill="none" stroke="#f9f9fc" stroke-linejoin="round" stroke-linecap="round" stroke-miterlimit="10" stroke-width="3.5556" d="M15.111 28.667c6.996 0 12.667-5.671 12.667-12.667s-5.671-12.667-12.667-12.667c-6.996 0-12.667 5.671-12.667 12.667s5.671 12.667 12.667 12.667z"></path>
  <path fill="none" stroke="#f9f9fc" stroke-linejoin="round" stroke-linecap="round" stroke-miterlimit="10" stroke-width="3.5556" d="M13.705 18.815l5.63-5.63"></path>
  <path fill="none" stroke="#f9f9fc" stroke-linejoin="round" stroke-linecap="round" stroke-miterlimit="10" stroke-width="3.5556" d="M10.889 16l2.815 2.815"></path>
</symbol>
<symbol id="icon-inProgress" viewBox="0 0 30 32">
  <path fill="none" stroke="#f9f9fc" stroke-linejoin="round" stroke-linecap="round" stroke-miterlimit="10" stroke-width="3.5556" d="M15.111 28.667c6.996 0 12.667-5.671 12.667-12.667s-5.671-12.667-12.667-12.667c-6.996 0-12.667 5.671-12.667 12.667s5.671 12.667 12.667 12.667z"></path>
  <path fill="none" stroke="#f9f9fc" stroke-linejoin="round" stroke-linecap="round" stroke-miterlimit="10" stroke-width="3.5556" d="M19.094 19.983l-3.983-3.983v-5.63"></path>
</symbol>
<symbol id="icon-canceled" viewBox="0 0 30 32">
  <path fill="none" stroke="#f9f9fc" stroke-linejoin="round" stroke-linecap="round" stroke-miterlimit="10" stroke-width="3.5556" d="M15.111 28.667c6.996 0 12.667-5.671 12.667-12.667s-5.671-12.667-12.667-12.667c-6.996 0-12.667 5.671-12.667 12.667s5.671 12.667 12.667 12.667z"></path>
  <path fill="none" stroke="#f9f9fc" stroke-linejoin="round" stroke-linecap="round" stroke-miterlimit="10" stroke-width="3.5556" d="M6.667 24.444l16.889-16.889"></path>
</symbol>
<symbol id="icon-filter-arrow" viewBox="0 0 53 32">
  <path d="M53.333 30.219l-26.667-26.667-26.667 26.667h53.333z"></path>
</symbol>
<symbol id="icon-filter" viewBox="0 0 31 32">
  <path stroke-linejoin="round" stroke-linecap="round" stroke-miterlimit="10" stroke-width="1.7778" d="M19.172 22.040v2.606c0 0.907-0.596 1.698-1.465 1.944l-3.228 0.881c-1.283 0.363-2.541-0.596-2.541-1.932v-8.193c0-0.531-0.22-1.050-0.596-1.426l-6.87-6.857c-0.376-0.376-0.583-0.894-0.583-1.426v-1.18c0-1.115 0.907-2.009 2.009-2.009h19.315c1.102 0 2.009 0.894 2.009 2.009v1.18c0 0.531-0.207 1.050-0.583 1.426l-4.381 4.369"></path>
  <path fill="#d4d4ec" style="fill: #d4d4ec" stroke-linejoin="round" stroke-linecap="round" stroke-miterlimit="10" stroke-width="1.7778" stroke="#000" d="M20.78 22.027c2.441 0 4.42-1.979 4.42-4.42s-1.979-4.42-4.42-4.42-4.42 1.979-4.42 4.42c0 2.441 1.979 4.42 4.42 4.42z"></path>
  <path stroke-linejoin="round" stroke-linecap="round" stroke-miterlimit="10" stroke-width="1.7778" d="M27.222 24.049l-3.306-3.306"></path>
</symbol>
<symbol id="icon-sort-arrow" viewBox="0 0 19 32">
  <path fill="none" stroke-linejoin="round" stroke-linecap="round" stroke-miterlimit="10" stroke-width="3.2" d="M1.6 9.6l8-8 8 8"></path>
  <path fill="none" stroke-linejoin="round" stroke-linecap="round" stroke-miterlimit="10" stroke-width="3.2" d="M9.6 30.4v-28.8"></path>
</symbol>
<symbol id="icon-hide-arrow" viewBox="0 0 28 32">
  <path stroke-linejoin="round" stroke-linecap="round" stroke-miterlimit="10" stroke-width="2.3704" d="M3.556 15.71l9.161-9.161c0.83-0.83 2.181-0.83 3.022 0l9.15 9.161"></path>
  <path stroke-linejoin="round" stroke-linecap="round" stroke-miterlimit="10" stroke-width="2.3704" d="M3.556 25.492l9.161-9.161c0.83-0.83 2.181-0.83 3.022 0l9.15 9.161"></path>
</symbol>
<symbol id="icon-info" viewBox="0 0 29 32">
  <path fill="none" stroke="#246e8c" stroke-linejoin="round" stroke-linecap="round" stroke-miterlimit="10" stroke-width="3.2" d="M23.776 25.6h-18.752c-1.856 0-3.312-1.568-3.2-3.408l0.624-9.408c0.432-6.304 5.648-11.184 11.952-11.184s11.52 4.88 11.952 11.168l0.624 9.408c0.112 1.856-1.344 3.424-3.2 3.424z"></path>
  <path fill="none" stroke="#246e8c" stroke-linejoin="round" stroke-linecap="round" stroke-miterlimit="10" stroke-width="3.2" d="M19.2 25.6c0 2.656-2.144 4.8-4.8 4.8s-4.8-2.144-4.8-4.8"></path>
</symbol>
<symbol id="icon-waiting" viewBox="0 0 32 32">
  <path fill="none" stroke="#5a7736" stroke-linejoin="round" stroke-linecap="round" stroke-miterlimit="10" stroke-width="3.2" d="M16 30.4c7.953 0 14.4-6.447 14.4-14.4s-6.447-14.4-14.4-14.4c-7.953 0-14.4 6.447-14.4 14.4s6.447 14.4 14.4 14.4z"></path>
  <path fill="none" stroke="#5a7736" stroke-linejoin="round" stroke-linecap="round" stroke-miterlimit="10" stroke-width="3.2" d="M20.528 20.528l-4.528-4.528v-6.4"></path>
</symbol>
<symbol id="icon-notify-error" viewBox="0 0 32 32">
  <path fill="none" stroke="#fe4747" stroke-linejoin="round" stroke-linecap="round" stroke-miterlimit="4" stroke-width="1.4545" d="M16 30c6.6 0 12-5.4 12-12s-5.4-12-12-12c-6.6 0-12 5.4-12 12s5.4 12 12 12z"></path>
  <path fill="none" stroke="#fe4747" stroke-linejoin="round" stroke-linecap="round" stroke-miterlimit="4" stroke-width="1.4545" d="M16 12.665v6.667"></path>
  <path fill="#fe4747" d="M17.333 23.333c0 0.736-0.597 1.333-1.333 1.333s-1.333-0.597-1.333-1.333c0-0.736 0.597-1.333 1.333-1.333s1.333 0.597 1.333 1.333z"></path>
</symbol>
<symbol id="icon-edit-pencil" viewBox="0 0 32 32">
  <path stroke-linejoin="round" stroke-linecap="round" stroke-miterlimit="4" stroke-width="2.4" d="M17.035 6.519l5.88 5.864M5.052 28.333h21.893M5.524 22.313l0.657-4.567c0.036-0.298 0.174-0.575 0.391-0.783l12.887-12.885c0.166-0.169 0.372-0.292 0.599-0.357s0.468-0.072 0.698-0.017c1.189 0.317 2.269 0.949 3.128 1.829 0.888 0.855 1.526 1.937 1.845 3.128 0.050 0.23 0.041 0.47-0.024 0.696s-0.187 0.433-0.352 0.601l-12.885 12.885c-0.222 0.205-0.499 0.341-0.797 0.392l-4.583 0.656c-0.213 0.029-0.431 0.008-0.635-0.062s-0.389-0.185-0.541-0.338c-0.152-0.153-0.266-0.339-0.333-0.544s-0.087-0.422-0.056-0.635z"></path>
</symbol>
<symbol id="icon-cancel" viewBox="0 0 32 32">
  <path d="M13.333 8h5.333c0-0.707-0.281-1.386-0.781-1.886s-1.178-0.781-1.886-0.781c-0.707 0-1.385 0.281-1.886 0.781s-0.781 1.178-0.781 1.886zM10.667 8c0-1.415 0.562-2.771 1.562-3.771s2.357-1.562 3.771-1.562c1.415 0 2.771 0.562 3.771 1.562s1.562 2.357 1.562 3.771h6.667c0.354 0 0.693 0.14 0.943 0.391s0.391 0.589 0.391 0.943c0 0.354-0.141 0.693-0.391 0.943s-0.589 0.391-0.943 0.391h-1.176l-1.181 13.787c-0.114 1.331-0.723 2.571-1.707 3.475s-2.272 1.405-3.608 1.405h-8.656c-1.336 0-2.624-0.501-3.608-1.405s-1.593-2.144-1.707-3.475l-1.181-13.787h-1.176c-0.354 0-0.693-0.14-0.943-0.391s-0.391-0.589-0.391-0.943c0-0.354 0.14-0.693 0.391-0.943s0.589-0.391 0.943-0.391h6.667zM20 16c0-0.354-0.141-0.693-0.391-0.943s-0.589-0.391-0.943-0.391c-0.354 0-0.693 0.141-0.943 0.391s-0.391 0.589-0.391 0.943v5.333c0 0.354 0.141 0.693 0.391 0.943s0.589 0.391 0.943 0.391c0.354 0 0.693-0.141 0.943-0.391s0.391-0.589 0.391-0.943v-5.333zM13.333 14.667c0.354 0 0.693 0.141 0.943 0.391s0.391 0.589 0.391 0.943v5.333c0 0.354-0.141 0.693-0.391 0.943s-0.589 0.391-0.943 0.391c-0.354 0-0.693-0.141-0.943-0.391s-0.391-0.589-0.391-0.943v-5.333c0-0.354 0.14-0.693 0.391-0.943s0.589-0.391 0.943-0.391zM9.013 24.227c0.057 0.666 0.362 1.286 0.854 1.738s1.136 0.702 1.805 0.702h8.656c0.668-0 1.311-0.251 1.803-0.703s0.796-1.072 0.853-1.737l1.163-13.56h-16.293l1.16 13.56z"></path>
</symbol>
</defs>
</svg>
